<svg xmlns="http://www.w3.org/2000/svg"  viewBox="0 0 333 294"><path fill="#FACC15" d="m85.375 76.5 3.46-.219c3.963.259 6.353 2.03 9.612 4.207 6.66 3.96 11.934 4.512 19.567 4.418l3.76.037c3.366.025 6.73.02 10.096-.003 3.546-.018 7.092-.001 10.638.01 5.951.013 11.902-.004 17.853-.037 6.85-.038 13.7-.026 20.551.012q8.871.047 17.742.018c3.518-.01 7.036-.012 10.554.011 3.927.024 7.852-.01 11.778-.048l3.468.043c7.709-.14 12.578-2.105 18.993-6.376 3.526-2.173 5.587-2.382 9.678-2.135l3.258.12C259 77 259 77 261 79v3l9 3v-2c1.77-.054 3.541-.093 5.313-.125l2.988-.07C281 83 281 83 284 85c.584 1.913.584 1.913.879 4.27l.35 2.663.334 2.88.37 2.96a908 908 0 0 1 2.255 20.54l.254 2.544c.5 5.403.629 10.716.558 16.143-2.477 1.32-4.33 2.066-7.125 2.625-4.775 1.246-8.146 4.563-11.836 7.695C268 149 268 149 267 149c-.187-2.812-.187-2.812 0-6l1.49-1.385c2.084-2.229 1.873-3.622 1.85-6.637v-3.094l-.047-3.333-.013-3.418c-.017-3.607-.054-7.213-.092-10.82a6489 6489 0 0 1-.042-7.33Q270.096 97.99 270 89l-2.875-.437C264 88 264 88 262 87l.219 2.438c.657 8.323.998 16.652 1.156 25l.115 3.083c.076 6.829-1.087 11.194-5.49 16.479-7.46 7.46-18.562 6.663-28.437 7.125l-2.603.126c-20.284.942-40.587.97-60.888.995q-3.891.006-7.782.02c-17.63.048-35.214-.124-52.817-1.157l-2.1-.117C84.927 139.928 84.927 139.928 79 134c-4.397-6.352-5.15-11.476-5.098-19.047l.005-2.337c.005-2.455.018-4.91.03-7.366q.008-2.502.014-5.004Q73.968 94.123 74 88l-5 1-.031 1.885q-.163 9.684-.341 19.367-.065 3.617-.125 7.235-.088 5.19-.187 10.38l-.05 3.283-.06 3.033-.048 2.678C68 139 68 139 67 141l4 2v6c-3.217-1.442-5.587-3.268-8.25-5.562-4.371-3.496-7.223-4.24-12.75-4.438-1.789-1.789-1.165-4.377-1.176-6.797.065-8.653.835-17.209 1.72-25.812.272-2.677.522-5.356.77-8.036q.258-2.56.518-5.12l.218-2.421c.242-2.229.242-2.229.95-5.814 3.494-2.329 4.888-2.216 9-2.125l3.188.055L68 83c2.84 0 5.237-.403 8-1l.375-1.937L77 78c2.811-1.406 5.236-1.361 8.375-1.5" /><path fill="#FACC15" d="m94.125 200.5 3.613.031c8.797.16 8.797.16 12.262 2.469.844 2.056.844 2.056 1.5 4.586l.745 2.805.755 2.984.794 3.019c1.597 6.102 3.143 12.219 4.565 18.364.935 3.3.935 3.3 2.641 6.242 4.858 2.299 9.783 2.435 15.063 2.625l2.812.113c20.32.7 40.747.628 61.063-.113l2.882-.093c6.838-.24 6.838-.24 13.18-2.532 4.411-7.303 5.473-16.734 7.395-24.95l.886-3.683.783-3.34c.978-3.164 1.834-5.457 3.936-8.027 2.632-.647 2.632-.647 5.77-.664l3.443-.02 3.6.059 3.564-.059c9.635.055 9.635.055 13.385 3.098 4.268 4.93 3.422 9.484 3.425 15.774l.038 3.119c.025 13.193.025 13.193-3.913 17.568-3.057 1.488-5.948 1.802-9.312 2.125-.115-8.07.1-15.977 1-24-2.272.06-4.542.149-6.812.25l-3.833.14c-3.313.314-3.313.314-5.175 2.153-1.628 3.39-2.457 6.865-3.243 10.52l-.512 2.287C227.92 244.077 227.92 244.077 227 255c2.25.054 4.5.093 6.75.125l3.797.07c3.228-.182 4.89-.291 7.453-2.195l.941-1.93c1.446-2.826 3.253-3.656 5.996-5.195l2.653-1.508L257 243l3-2c-.906 19.93-.906 19.93-5.504 24.492-1.866 1.88-2.321 3.48-3.059 6.008-.892 3.026-1.645 4.813-3.437 7.5l2.55.078c15.23.696 30.521 2.836 45.45 5.922v1H36v-1c6.897-1.494 13.809-2.588 20.8-3.535 1.856-.27 3.709-.576 5.541-.974 2.827-.522 5.525-.7 8.397-.807l3.233-.127 3.341-.12 3.4-.13q4.144-.159 8.288-.307l-.838-1.653-1.096-2.175-1.087-2.153C85 271 85 271 83.938 268.25c-.81-2.283-.81-2.283-2.391-3.895-2.117-3.224-2.611-6.556-3.234-10.293l-.393-2.13c-.652-3.68-1.074-7.195-.92-10.932a924 924 0 0 1 5.25 3.25l2.953 1.828c3.191 2.193 5.78 4.53 8.067 7.66 2.844 2.074 6.044 1.572 9.418 1.45l2.126-.042c1.73-.035 3.458-.089 5.186-.146-.244-10.692-2.917-20.728-5.557-31.036C104 222 104 222 104 220c-3.467-1.156-6.541-1.328-10.187-1.562l-3.856-.254L87 218l.184 1.665q.411 3.76.816 7.523l.29 2.619c.437 4.08.846 8.08.71 12.193-5.3.505-7.82-.792-12-4-2.62-2.62-1.318-9.821-1.35-13.563a272 272 0 0 0-.082-4.222c-.356-13.135-.356-13.135 2.135-17.14 5.256-3.307 10.353-2.786 16.422-2.575" /><path fill="#FACC15" d="m114.738 151.746 2.952-.017 3.236.012 3.41-.01c3.73-.01 7.46-.003 11.191.003l7.761-.005q8.14-.005 16.28.01 9.406.015 18.814-.003 9.051-.014 18.102-.004 3.851.003 7.702-.005c3.586-.005 7.173.003 10.76.014l3.228-.012 2.961.017 2.57.002c2.498.274 4.135.999 6.295 2.252-1.306 8.922-3.268 17.63-5.377 26.386-.953 4.002-1.872 8.011-2.793 12.021a5671 5671 0 0 1-2.314 10.027q-1.472 6.358-2.907 12.726l-1.297 5.653-.575 2.602c-1.006 4.335-2.03 7.95-4.737 11.585-4.79 2.395-11.135 1.792-16.438 2.125l-2.192.14c-11.772.723-23.46.801-35.245.423l-2.218-.07A708 708 0 0 1 140 237l-3.306-.126-2.952-.167-2.512-.122c-3.12-.819-4.27-2.034-6.23-4.585-1.147-3.151-1.147-3.151-2.04-6.824l-.495-2A483 483 0 0 1 121 217l-.874-3.71c-.854-3.696-1.681-7.398-2.501-11.102q-.905-4.056-1.813-8.11l-.455-2.041c-1.78-7.958-3.63-15.9-5.491-23.839-1.098-4.718-2.16-9.402-2.866-14.198 3.215-2.143 4.042-2.25 7.738-2.254" /><path fill="#FACC15" d="M194.852 21.544c2.58.268 5.162.52 7.744.77 4.27.422 8.533.888 12.794 1.385q2.68.309 5.36.594c2.724.296 5.442.628 8.16.969l2.498.255c5.117.69 8.066 2 11.496 5.927 1.416 2.01 2.02 3.641 2.338 6.08l.352 2.402.281 2.449.352 2.52c.28 2.032.53 4.068.773 6.105l2-11c3.558 1.186 4.055 2.122 6.063 5.188l1.535 2.292C260.852 55.124 260 59.674 260 69H78c0-19 0-19 7.188-27.625C87 40 87 40 89 40l1 10q.69-2.5 1.375-5l.852-3.035c.79-2.85.79-2.85 1.171-5.336.636-3.735 1.244-5.354 4.282-7.688 5.767-3.043 12.324-3.624 18.695-4.566l2.068-.319c9.24-1.423 18.487-2.597 27.807-3.368l2.763-.231c15.36-1.088 30.542-.504 45.839 1.087" /><path fill="#FFF" d="m162.363 92.414 2.4.026c2.518.033 5.033.109 7.55.185q2.567.045 5.134.082c4.186.066 8.369.17 12.553.293v2c-1.504 1.445-1.504 1.445-3.562 3.125-3.516 2.987-6.482 6.127-9.458 9.64-2.385 2.691-4.92 5.213-7.48 7.735-3.764 3.713-7.372 7.497-10.77 11.55-.57.644-1.142 1.287-1.73 1.95l-1.219 1.549c-2.062 2.399-3.667 4.177-6.803 4.948-2.333.132-4.583.076-6.916-.06l-2.505-.074A312 312 0 0 1 132 135l-2.346-.125c-4.224-.23-8.438-.522-12.654-.875 1.315-2.918 2.716-4.95 5.012-7.172l1.786-1.751 1.89-1.827c4.408-4.328 8.676-8.667 12.667-13.387 2.66-3.013 5.552-5.79 8.434-8.59 2.35-2.285 2.35-2.285 4.326-5.378 3.14-3.768 6.598-3.67 11.248-3.48" /><path fill="#FACC15" d="m73 82 3 1c1.13 3.392 1.04 5.787.914 9.355l-.133 3.827-.078 1.995c-.077 1.986-.144 3.972-.21 5.958C76.26 110.479 75.941 116.72 75 123h-1V88l-5 1-.031 1.885q-.163 9.684-.341 19.367-.065 3.617-.125 7.235-.088 5.19-.187 10.38l-.05 3.283-.06 3.033-.048 2.678C68 139 68 139 67 141l4 2v6c-3.217-1.442-5.587-3.268-8.25-5.562-4.371-3.496-7.223-4.24-12.75-4.438-1.789-1.789-1.165-4.377-1.176-6.797.065-8.653.835-17.209 1.72-25.812.272-2.677.522-5.356.77-8.036q.258-2.56.518-5.12l.218-2.421c.242-2.229.242-2.229.95-5.814 3.494-2.329 4.888-2.216 9-2.125l3.188.055L68 83c2.925.224 2.925.224 5-1" /><path fill="#FACC15" d="M270 83c1.77-.054 3.541-.093 5.313-.125l2.988-.07C281 83 281 83 284 85c.584 1.913.584 1.913.879 4.27l.35 2.663.334 2.88.37 2.96a908 908 0 0 1 2.255 20.54l.254 2.544c.5 5.403.629 10.716.558 16.143-2.477 1.32-4.33 2.066-7.125 2.625-4.775 1.246-8.146 4.563-11.836 7.695C268 149 268 149 267 149c-.187-2.812-.187-2.812 0-6l1.49-1.385c2.084-2.229 1.873-3.622 1.85-6.637v-3.094l-.047-3.333-.013-3.418c-.017-3.607-.054-7.213-.092-10.82a6489 6489 0 0 1-.042-7.33Q270.096 97.99 270 89l-3-1h2z" /><path fill="#FFF" d="M116 167h105c-1.2 5.995-1.2 5.995-4 8-1.976.43-1.976.43-4.255.507l-2.6.106-2.82.067-2.957.1c-11.183.344-22.368.372-33.555.345l-3.218-.003c-16.217-.016-32.398-.248-48.595-1.122-3-5.75-3-5.75-3-8" /><path fill="#FFF" d="m152.563 251.273 3.709-.003q3.877.008 7.756.058c3.958.047 7.913.04 11.87.027q3.77.018 7.54.043l3.586-.005c8.196.141 8.196.141 12.18 2.52C202.29 257.499 203 259.179 203 264h-70c4-12 7.519-12.914 19.563-12.727" /><path fill="#FFF" d="M121 186h95c-1 6-1 6-2 7-20.815 3.476-42.801 2.223-63.828 2.02-2.048-.019-4.096-.03-6.144-.042a676 676 0 0 1-10.153-.166c-.976-.005-1.952-.01-2.958-.017-2.415-.08-4.58-.187-6.917-.795-2.565-2.863-3-4.175-3-8" /><path fill="#FFF" d="M124 205h88c-1 6-1 6-2 7-23.963 3.535-49.28 2.752-73.437 1.625l-2.235-.093c-6.788-.397-6.788-.397-9.328-2.532z" /><path fill="#FFF" d="M142 93c-1.352 3.03-2.855 5.085-5.23 7.39l-1.923 1.888-2.035 1.972a2101 2101 0 0 0-4.128 4.07l-1.874 1.837c-1.892 1.926-3.67 3.925-5.435 5.968l-1.543 1.758a143 143 0 0 0-3.116 3.706c-9.398 11.49-9.398 11.49-16.114 12.243-3.928.114-7.72-.249-11.602-.832 1.484-3.487 3.462-5.642 6.188-8.25 2.856-2.789 5.602-5.583 8.187-8.625 3.327-3.884 6.906-7.492 10.59-11.034 2.826-2.745 4.995-5.508 7.16-8.778C125.957 90.425 135.171 92.447 142 93" /><path fill="#FFF" d="M128 223h80c-2 6-2 6-3 7-2.69.247-5.354.425-8.05.555l-2.553.127c-9.821.445-19.642.469-29.471.448-3.148-.005-6.296 0-9.444.007q-3.043 0-6.087-.004l-2.81.006c-2.53-.01-5.055-.066-7.585-.139l-2.318.015c-2.144-.086-2.144-.086-5.682-1.015z" /><path fill="#FACC15" d="M74 142a226 226 0 0 1 10.035 4.242c1.99.824 1.99.824 4.274 1.266 3.56.83 5.954 1.39 8.046 4.52 1.085 2.629 1.902 5.227 2.645 7.972l.723 2.504q.734 2.633 1.418 5.281c.68 2.545 1.4 5.064 2.156 7.586l.693 2.314q.688 2.285 1.385 4.565c.904 3.017 1.625 5.582 1.625 8.75-5.34-1.506-11.982-3.982-16-8a96 96 0 0 1-.262-4.559c-.247-10.25-.247-10.25-4.25-19.315-2.4-1.99-4.915-3.513-7.63-5.032-4.703-2.658-4.703-2.658-5.776-5.676.043-2.543.043-2.543.918-6.418" /><path fill="#FACC15" d="M263 142c.293 3.052.412 5.955 0 9-2.062 2.25-2.062 2.25-5 4a479 479 0 0 0-3.687 2.75C251.256 160 251.256 160 249 160l-.148 2.71a331 331 0 0 1-.555 7.536c-.339 3.61-.339 3.61-.281 6.664-.166 2.984-.394 4.554-2.016 7.09-4.542 3.195-9.82 5.097-15 7 1.401-7.743 3.287-15.332 5.35-22.925q.529-1.965 1.04-3.932c.5-1.924 1.02-3.842 1.54-5.76l.913-3.425c1.258-3.216 2.49-4.799 5.157-6.958 2.875-.941 2.875-.941 6-1.562 4.162-.838 8.238-4.438 12-4.438" /><path fill="#FACC15" d="M284 85c1.601 11.083 3.107 22.166 4.188 33.313l.253 2.543c.502 5.404.63 10.717.559 16.144h-1l-1-6-1 4h-9l1-2c.25-3.744.19-7.5.188-11.25l.001-3.36c-.068-10.87-.988-21.594-2.189-32.39 4.625-2.125 4.625-2.125 8-1" /><path fill="#FFF" d="M124 271h89l1 5h-91z" /><path fill="#FACC15" d="M264 158v14l-4 1 4 1v6l-2 1 2 1c.313 2.688.313 2.688 0 6-2.173 2.573-3.98 4.49-7 6a61 61 0 0 1-4.133.098l-2.441-.01-2.551-.025-2.574-.014q-3.15-.02-6.301-.049c2.32-2.46 3.763-3.274 7-4.187 2.243-.904 2.243-.904 4-2.813 2.077-6.436 2.754-13.079 3.32-19.797.785-3.7 1.529-4.58 4.618-6.64l2.152-1.497C262 158 262 158 264 158" /><path fill="#FACC15" d="m74 158 4 2 2.691 1.292C83 163 83 163 83.744 165.448l.197 2.884.312 3.164.31 3.316c.663 7.387.663 7.387 3.782 13.9 3.189 2.445 6.752 3.552 10.655 4.288v1c-3.043.136-6.08.234-9.125.313l-2.594.126c-4.327.084-7.373-.005-10.875-2.72C74 189 74 189 73.625 185.188L74 182l2-1-2-1v-6l5-1-5-1z" /><path fill="#FACC15" d="M275 282c7.094.585 14.016 1.632 21 3v1H36v-1q2.371-.546 4.75-1.062l2.672-.598c2.658-.35 4.025.015 6.578.66a64 64 0 0 0 4.053.123l2.43.006 2.654-.009 2.831.003q4.708 0 9.416-.01l6.74.001q9.16-.001 18.321-.013 9.57-.007 19.139-.008 16.065-.004 32.13-.018 16.546-.014 33.094-.02h2.06l10.234-.005q42.45-.016 84.898-.05z" />
</svg>